<svg width="60" height="60" viewBox="0 0 60 60" fill="none" xmlns="http://www.w3.org/2000/svg">
<circle cx="30" cy="30" r="30" fill="#A65E34"/>
<path d="M26.8543 41.6055C26.4862 41.5523 26.1553 41.3485 25.9271 41.0441L18.1021 30.9238C17.8066 30.6264 17.645 30.2124 17.6471 29.7865L17.6471 29.7862C17.6495 29.3519 17.8217 28.9311 18.1331 28.6358C18.4458 28.3387 18.8683 28.1991 19.2913 28.2648L19.2916 28.2649C19.7064 28.3297 20.0642 28.5831 20.2855 28.9445L26.9749 37.5808L39.7072 19.3553C39.9196 19.0008 40.2629 18.7472 40.6645 18.6708C40.6646 18.6708 40.6647 18.6708 40.6648 18.6708L40.7306 19.0175C41.0296 18.9605 41.3363 19.0439 41.5767 19.2474L26.8543 41.6055ZM26.8543 41.6055L26.8676 41.6191H27.0164H27.0435V41.6193L27.0559 41.6189C27.5022 41.6033 27.9065 41.3675 28.163 40.9962M26.8543 41.6055L28.163 40.9962M28.163 40.9962C28.1633 40.9959 28.1635 40.9955 28.1637 40.9952L41.9992 21.2093C42.2578 20.8901 42.3811 20.4739 42.3475 20.0593M28.163 40.9962L42.3475 20.0593M42.3475 20.0593C42.3475 20.0594 42.3475 20.0595 42.3475 20.0596L41.9959 20.0878L42.3475 20.0593ZM41.8047 18.978C41.8047 18.9779 41.8047 18.9779 41.8047 18.9779L41.5769 19.2471L41.8047 18.978Z" fill="white" stroke="white" stroke-width="0.705882"/>
</svg>
